<svg xmlns="http://www.w3.org/2000/svg" xmlns:xlink="http://www.w3.org/1999/xlink" xmlns:inkscape="http://www.inkscape.org/namespaces/inkscape" version="1.1" width="288" height="288" viewBox="0 0 288 288">
<defs>
<clipPath id="clip_0">
<path transform="matrix(1,0,0,-1,0,288)" d="M0 0H288V288H0Z"/>
</clipPath>
<clipPath id="clip_1">
<path transform="matrix(1,0,0,-1,0,288)" d="M0 0H288V288H0Z"/>
</clipPath>
</defs>
<g clip-path="url(#clip_0)">
<path transform="matrix(1,0,0,-1,56.2322,131.2727)" d="M0 0C25.409 0 46.007 20.598 46.007 46.007 46.007 71.416 25.409 92.014 0 92.014-25.409 92.014-46.007 71.416-46.007 46.007-46.007 20.598-25.409 0 0 0"/>
<path transform="matrix(1,0,0,-1,56.2322,131.2727)" stroke-width="1.065" stroke-linecap="butt" stroke-miterlimit="4" stroke-linejoin="miter" fill="none" stroke="#000000" d="M0 0C25.409 0 46.007 20.598 46.007 46.007 46.007 71.416 25.409 92.014 0 92.014-25.409 92.014-46.007 71.416-46.007 46.007-46.007 20.598-25.409 0 0 0Z"/>
</g>
<path transform="matrix(1,0,0,-1,0,288)" d="M112.977 168.377H278.30799V237.091H112.977Z" fill="#ff751f"/>
<g clip-path="url(#clip_1)">
<path transform="matrix(1,0,0,-1,231.7678,156.7273)" d="M0 0C-25.409 0-46.007-20.598-46.007-46.007-46.007-71.416-25.409-92.014 0-92.014 25.409-92.014 46.007-71.416 46.007-46.007 46.007-20.598 25.409 0 0 0"/>
<path transform="matrix(1,0,0,-1,231.7678,156.7273)" stroke-width="1.065" stroke-linecap="butt" stroke-miterlimit="4" stroke-linejoin="miter" fill="none" stroke="#000000" d="M0 0C-25.409 0-46.007-20.598-46.007-46.007-46.007-71.416-25.409-92.014 0-92.014 25.409-92.014 46.007-71.416 46.007-46.007 46.007-20.598 25.409 0 0 0Z"/>
</g>
<path transform="matrix(1,0,0,-1,0,288)" d="M175.023 119.623H9.692001V50.909006H175.023Z" fill="#ff751f"/>
</svg>
